<svg id="Ebene_1" data-name="Ebene 1" xmlns="http://www.w3.org/2000/svg" xmlns:xlink="http://www.w3.org/1999/xlink" viewBox="0 0 121.5 121.5"><defs><style>.cls-1{fill:#fff;}.cls-2{fill:#b9864f;}.cls-3{fill:url(#Unbenannter_Verlauf_137);}.cls-4{fill:#f8c2dd;}.cls-11,.cls-13,.cls-15,.cls-17,.cls-5,.cls-7,.cls-9{stroke-linecap:round;stroke-linejoin:round;stroke-width:0.56px;opacity:0.5;}.cls-5{fill:url(#Unbenannter_Verlauf_137-2);stroke:url(#Unbenannter_Verlauf_2);}.cls-6{fill:url(#Unbenannter_Verlauf_137-3);}.cls-7{fill:url(#Unbenannter_Verlauf_137-4);stroke:url(#Unbenannter_Verlauf_2-2);}.cls-8{fill:url(#Unbenannter_Verlauf_137-5);}.cls-9{fill:url(#Unbenannter_Verlauf_137-6);stroke:url(#Unbenannter_Verlauf_2-3);}.cls-10{fill:url(#Unbenannter_Verlauf_137-7);}.cls-11{fill:url(#Unbenannter_Verlauf_137-8);stroke:url(#Unbenannter_Verlauf_2-4);}.cls-12{fill:url(#Unbenannter_Verlauf_137-9);}.cls-13{fill:url(#Unbenannter_Verlauf_137-10);stroke:url(#Unbenannter_Verlauf_2-5);}.cls-14{fill:url(#Unbenannter_Verlauf_137-11);}.cls-15{fill:url(#Unbenannter_Verlauf_137-12);stroke:url(#Unbenannter_Verlauf_2-6);}.cls-16{fill:url(#Unbenannter_Verlauf_137-13);}.cls-17{fill:url(#Unbenannter_Verlauf_137-14);stroke:url(#Unbenannter_Verlauf_2-7);}.cls-18{fill:#ba874f;}.cls-19{fill:#dfb377;}.cls-20,.cls-21,.cls-22,.cls-23,.cls-24{opacity:0.8;}.cls-20{fill:url(#Unbenannter_Verlauf_146);}.cls-21{fill:url(#Unbenannter_Verlauf_146-2);}.cls-22{fill:url(#Unbenannter_Verlauf_146-3);}.cls-23{fill:url(#Unbenannter_Verlauf_146-4);}.cls-24{fill:url(#Unbenannter_Verlauf_146-5);}.cls-25{fill:#edcb8e;}</style><linearGradient id="Unbenannter_Verlauf_137" x1="38.82" y1="68.24" x2="62.93" y2="68.24" gradientUnits="userSpaceOnUse"><stop offset="0" stop-color="#f8c2dd"/><stop offset="1" stop-color="#f58cb0"/></linearGradient><linearGradient id="Unbenannter_Verlauf_137-2" x1="41.09" y1="63.75" x2="60.66" y2="63.75" xlink:href="#Unbenannter_Verlauf_137"/><linearGradient id="Unbenannter_Verlauf_2" x1="40.8" y1="63.75" x2="60.94" y2="63.75" gradientUnits="userSpaceOnUse"><stop offset="0" stop-color="#f8c2dd"/><stop offset="1" stop-color="#ef3c79"/></linearGradient><linearGradient id="Unbenannter_Verlauf_137-3" x1="38.82" y1="63.46" x2="62.93" y2="63.46" xlink:href="#Unbenannter_Verlauf_137"/><linearGradient id="Unbenannter_Verlauf_137-4" x1="41.09" y1="58.97" x2="60.66" y2="58.97" xlink:href="#Unbenannter_Verlauf_137"/><linearGradient id="Unbenannter_Verlauf_2-2" x1="40.8" y1="58.97" x2="60.94" y2="58.97" xlink:href="#Unbenannter_Verlauf_2"/><linearGradient id="Unbenannter_Verlauf_137-5" x1="38.82" y1="58.81" x2="62.93" y2="58.81" xlink:href="#Unbenannter_Verlauf_137"/><linearGradient id="Unbenannter_Verlauf_137-6" x1="41.09" y1="54.33" x2="60.66" y2="54.33" xlink:href="#Unbenannter_Verlauf_137"/><linearGradient id="Unbenannter_Verlauf_2-3" x1="40.8" y1="54.33" x2="60.94" y2="54.33" xlink:href="#Unbenannter_Verlauf_2"/><linearGradient id="Unbenannter_Verlauf_137-7" x1="51.79" y1="77.36" x2="75.91" y2="77.36" xlink:href="#Unbenannter_Verlauf_137"/><linearGradient id="Unbenannter_Verlauf_137-8" x1="54.06" y1="72.87" x2="73.64" y2="72.87" xlink:href="#Unbenannter_Verlauf_137"/><linearGradient id="Unbenannter_Verlauf_2-4" x1="53.78" y1="72.87" x2="73.92" y2="72.87" xlink:href="#Unbenannter_Verlauf_2"/><linearGradient id="Unbenannter_Verlauf_137-9" x1="51.79" y1="72.58" x2="75.91" y2="72.58" xlink:href="#Unbenannter_Verlauf_137"/><linearGradient id="Unbenannter_Verlauf_137-10" x1="54.06" y1="68.09" x2="73.64" y2="68.09" xlink:href="#Unbenannter_Verlauf_137"/><linearGradient id="Unbenannter_Verlauf_2-5" x1="53.78" y1="68.09" x2="73.92" y2="68.09" xlink:href="#Unbenannter_Verlauf_2"/><linearGradient id="Unbenannter_Verlauf_137-11" x1="51.79" y1="67.93" x2="75.91" y2="67.93" xlink:href="#Unbenannter_Verlauf_137"/><linearGradient id="Unbenannter_Verlauf_137-12" x1="54.06" y1="63.44" x2="73.64" y2="63.44" xlink:href="#Unbenannter_Verlauf_137"/><linearGradient id="Unbenannter_Verlauf_2-6" x1="53.78" y1="63.44" x2="73.92" y2="63.44" xlink:href="#Unbenannter_Verlauf_2"/><linearGradient id="Unbenannter_Verlauf_137-13" x1="51.79" y1="61.84" x2="75.9" y2="61.84" xlink:href="#Unbenannter_Verlauf_137"/><linearGradient id="Unbenannter_Verlauf_137-14" x1="54.06" y1="57.35" x2="73.64" y2="57.35" xlink:href="#Unbenannter_Verlauf_137"/><linearGradient id="Unbenannter_Verlauf_2-7" x1="53.78" y1="57.35" x2="73.92" y2="57.35" xlink:href="#Unbenannter_Verlauf_2"/><radialGradient id="Unbenannter_Verlauf_146" cx="164.26" cy="89.18" r="3.77" gradientTransform="translate(-70.63 -80.7) rotate(18.26)" gradientUnits="userSpaceOnUse"><stop offset="0.31" stop-color="#fff"/><stop offset="0.47" stop-color="#fffbfd"/><stop offset="0.62" stop-color="#fdf0f7"/><stop offset="0.77" stop-color="#fbddec"/><stop offset="0.92" stop-color="#f8c2dd"/><stop offset="0.92" stop-color="#f8c2dd"/></radialGradient><radialGradient id="Unbenannter_Verlauf_146-2" cx="151.09" cy="89.55" r="3.77" xlink:href="#Unbenannter_Verlauf_146"/><radialGradient id="Unbenannter_Verlauf_146-3" cx="168.33" cy="91.39" r="3.06" xlink:href="#Unbenannter_Verlauf_146"/><radialGradient id="Unbenannter_Verlauf_146-4" cx="176.04" cy="83.04" r="3.06" xlink:href="#Unbenannter_Verlauf_146"/><radialGradient id="Unbenannter_Verlauf_146-5" cx="154.37" cy="86.76" r="3.06" xlink:href="#Unbenannter_Verlauf_146"/></defs><rect class="cls-1" width="121.5" height="121.5"/><polygon class="cls-2" points="60.72 72.02 22.02 49.67 60.6 27.24 99.3 49.58 60.72 72.02"/><path class="cls-3" d="M62.55,61.76a.79.79,0,0,0-.76,0l-13.2,7.66-8.64-5a.77.77,0,0,0-.75,0,.76.76,0,0,0-.38.66v3.76a.76.76,0,0,0,.38.66l9,5.21h0l.16.07h0a.64.64,0,0,0,.2,0,.63.63,0,0,0,.19,0l.11,0,.07,0h0l13.57-7.88a.76.76,0,0,0,.38-.66V62.42A.76.76,0,0,0,62.55,61.76Z"/><path class="cls-4" d="M48.6,71.05a.7.7,0,0,1-.38-.1l-9-5.21a.73.73,0,0,1-.38-.65.77.77,0,0,1,.37-.66l13.58-7.88a.79.79,0,0,1,.76,0l9,5.21a.76.76,0,0,1,.38.66.73.73,0,0,1-.38.65L49,71A.75.75,0,0,1,48.6,71.05Z"/><polygon class="cls-5" points="60.66 62.42 53.15 58.09 41.09 65.09 48.59 69.42 60.66 62.42"/><path class="cls-6" d="M62.55,57a.79.79,0,0,0-.76,0l-13.2,7.66-8.64-5a.77.77,0,0,0-.75,0,.76.76,0,0,0-.38.66v3.76a.76.76,0,0,0,.38.66l9,5.21h0a.44.44,0,0,0,.16.06h0a.64.64,0,0,0,.2,0,.63.63,0,0,0,.19,0l.11,0,.07,0h0l13.57-7.88a.76.76,0,0,0,.38-.66V57.64A.76.76,0,0,0,62.55,57Z"/><path class="cls-4" d="M48.6,66.27a.7.7,0,0,1-.38-.1L39.2,61a.73.73,0,0,1-.38-.65.77.77,0,0,1,.37-.66l13.58-7.88a.79.79,0,0,1,.76,0l9,5.21a.76.76,0,0,1,.38.66.73.73,0,0,1-.38.65L49,66.17A.75.75,0,0,1,48.6,66.27Z"/><polygon class="cls-7" points="60.66 57.64 53.15 53.3 41.09 60.31 48.59 64.64 60.66 57.64"/><path class="cls-8" d="M62.55,52.34a.74.74,0,0,0-.76,0L48.59,60,40,55a.72.72,0,0,0-.75,0,.73.73,0,0,0-.38.65v3.77a.73.73,0,0,0,.38.65l9,5.21h0l.16.07h0a.65.65,0,0,0,.2,0,.62.62,0,0,0,.19,0l.11-.05s.05,0,.07,0h0l13.57-7.88a.73.73,0,0,0,.38-.65V53A.73.73,0,0,0,62.55,52.34Z"/><path class="cls-4" d="M48.6,61.63a.8.8,0,0,1-.38-.1l-9-5.21a.76.76,0,0,1-.38-.66.74.74,0,0,1,.37-.65l13.58-7.88a.74.74,0,0,1,.76,0l9,5.21a.73.73,0,0,1,.38.65.76.76,0,0,1-.38.66L49,61.53A.86.86,0,0,1,48.6,61.63Z"/><polygon class="cls-9" points="60.66 52.99 53.15 48.66 41.09 55.66 48.59 59.99 60.66 52.99"/><path class="cls-10" d="M75.53,70.88a.74.74,0,0,0-.76,0l-13.2,7.66-8.64-5a.79.79,0,0,0-.76,0,.78.78,0,0,0-.38.66V78a.78.78,0,0,0,.38.66l9,5.2h0l.16.06h0a.63.63,0,0,0,.19,0,.69.69,0,0,0,.2,0l.11,0s0,0,.07,0h0L75.53,76a.78.78,0,0,0,.38-.66V71.53A.75.75,0,0,0,75.53,70.88Z"/><path class="cls-4" d="M61.57,80.17a.75.75,0,0,1-.38-.1l-9-5.21a.75.75,0,0,1-.38-.65.78.78,0,0,1,.38-.66l13.58-7.88a.74.74,0,0,1,.76,0l9,5.21a.75.75,0,0,1,.38.65.78.78,0,0,1-.38.66L62,80.07A.75.75,0,0,1,61.57,80.17Z"/><polygon class="cls-11" points="73.64 71.54 66.13 67.2 54.06 74.2 61.57 78.54 73.64 71.54"/><path class="cls-12" d="M75.53,66.1a.74.74,0,0,0-.76,0l-13.2,7.66-8.64-5a.74.74,0,0,0-.76,0,.78.78,0,0,0-.38.66v3.76a.78.78,0,0,0,.38.66l9,5.2h0l.16.07h0a.63.63,0,0,0,.19,0,.69.69,0,0,0,.2,0l.11,0s0,0,.07,0h0l13.58-7.88a.75.75,0,0,0,.38-.65V66.75A.75.75,0,0,0,75.53,66.1Z"/><path class="cls-4" d="M61.57,75.39a.75.75,0,0,1-.38-.1l-9-5.21a.77.77,0,0,1-.38-.66.75.75,0,0,1,.38-.65l13.58-7.88a.74.74,0,0,1,.76,0l9,5.21a.75.75,0,0,1,.38.65.78.78,0,0,1-.38.66L62,75.29A.75.75,0,0,1,61.57,75.39Z"/><polygon class="cls-13" points="73.64 66.75 66.13 62.42 54.06 69.42 61.57 73.76 73.64 66.75"/><path class="cls-14" d="M75.53,61.45a.79.79,0,0,0-.76,0l-13.2,7.66-8.64-5a.79.79,0,0,0-.76,0,.78.78,0,0,0-.38.66v3.76a.78.78,0,0,0,.38.66l9,5.21h0l.16.07h0a.63.63,0,0,0,.19,0,.69.69,0,0,0,.2,0l.11,0,.07,0h0l13.58-7.88a.78.78,0,0,0,.38-.66V62.11A.78.78,0,0,0,75.53,61.45Z"/><path class="cls-4" d="M61.57,70.74a.75.75,0,0,1-.38-.1l-9-5.21a.75.75,0,0,1-.38-.65.78.78,0,0,1,.38-.66l13.58-7.88a.79.79,0,0,1,.76,0l9,5.21a.78.78,0,0,1,.38.66.75.75,0,0,1-.38.65L62,70.64A.75.75,0,0,1,61.57,70.74Z"/><polygon class="cls-15" points="73.64 62.11 66.13 57.77 54.06 64.78 61.57 69.11 73.64 62.11"/><path class="cls-16" d="M75.53,55.36a.74.74,0,0,0-.76,0L61.57,63l-8.64-5a.79.79,0,0,0-.76,0,.76.76,0,0,0-.38.66v3.76a.76.76,0,0,0,.38.66l9,5.21h0a.52.52,0,0,0,.16.06h0a.69.69,0,0,0,.2,0,.63.63,0,0,0,.19,0l.12,0s0,0,.07,0h0l13.58-7.88a.77.77,0,0,0,.37-.66V56A.75.75,0,0,0,75.53,55.36Z"/><path class="cls-4" d="M61.57,64.65a.75.75,0,0,1-.38-.1l-9-5.21a.73.73,0,0,1-.38-.65.76.76,0,0,1,.38-.66l13.58-7.88a.75.75,0,0,1,.75,0l9,5.21a.74.74,0,0,1,.37.65.73.73,0,0,1-.37.66L62,64.55A.75.75,0,0,1,61.57,64.65Z"/><polygon class="cls-17" points="73.64 56.02 66.13 51.68 54.06 58.68 61.57 63.02 73.64 56.02"/><polygon class="cls-18" points="60.75 114.25 22.05 91.91 22.02 49.67 60.75 71.93 60.75 114.25"/><polygon class="cls-19" points="99.3 91.91 60.6 114.25 60.6 71.93 99.3 49.58 99.3 91.91"/><circle class="cls-20" cx="57.43" cy="55.45" r="3.77"/><circle class="cls-21" cx="44.8" cy="51.67" r="3.77"/><circle class="cls-22" cx="60.6" cy="58.81" r="3.06"/><circle class="cls-23" cx="70.54" cy="53.3" r="3.06"/><circle class="cls-24" cx="48.79" cy="50.05" r="3.06"/><polyline class="cls-25" points="60.5 71.83 76.36 87.41 115.08 64.86 99.3 49.58"/><polyline class="cls-25" points="60.6 27.24 42.27 28.79 3.92 50.48 22.02 49.67 7.86 65.39 45.81 88.11 60.6 71.83 22.02 49.67"/><polygon class="cls-25" points="60.5 27.28 70.92 8.75 110.61 31.62 99.3 49.58 60.5 27.28"/></svg>